<!--?xml version="1.0" standalone="no"?-->

<svg xmlns="http://www.w3.org/2000/svg" width="103.000000pt" height="300.000000pt" viewBox="0 0 103.000000 300.000000" preserveAspectRatio="xMidYMid meet">
<g transform="translate(0.000000,300.000000) scale(0.100000,-0.100000)" fill="#282828" stroke="none">
<path style="position: relative;" class="node" id="node1" d="M698 2983 c-48 -55 -44 -93 13 -127 16 -9 34 -27 40 -39 18 -32 28
-146 18 -197 -5 -25 -18 -101 -29 -170 -11 -69 -26 -154 -34 -190 l-14 -65 -1
115 c-1 171 -12 181 -156 134 -86 -28 -115 -51 -115 -92 0 -20 -3 -23 -12 -14
-9 9 -9 18 0 37 7 15 12 74 12 138 0 62 3 142 7 180 5 60 8 67 28 67 39 0 53
28 50 99 -5 88 -25 109 -88 91 -59 -16 -118 -75 -116 -116 1 -16 -3 -58 -10
-94 -6 -36 -15 -139 -21 -230 -6 -91 -15 -194 -21 -229 -15 -85 -6 -171 33
-316 32 -120 32 -120 30 -334 -3 -198 -5 -223 -31 -325 -16 -61 -39 -156 -51
-211 -22 -104 -87 -375 -97 -410 -4 -11 -9 -123 -12 -250 l-6 -230 -41 -20
c-57 -28 -74 -44 -74 -70 0 -40 22 -48 112 -40 46 4 90 11 99 16 10 5 19 28
23 61 4 29 25 107 47 173 23 66 55 170 74 230 18 61 44 139 59 175 34 84 139
290 147 290 6 0 33 -94 80 -270 29 -110 86 -398 104 -529 9 -63 22 -131 28
-150 11 -33 16 -36 52 -39 22 -1 68 -10 103 -19 59 -15 63 -15 82 2 11 10 20
31 20 46 0 26 -5 30 -54 44 -29 9 -61 24 -71 35 -19 21 -19 36 9 360 9 107 21
368 27 580 6 212 14 453 18 535 15 274 -14 1219 -38 1264 -13 22 -58 64 -105
95 -45 30 -96 34 -118 9z m130 -58 c53 -40 60 -49 65 -88 12 -83 31 -447 24
-453 -4 -4 -25 1 -48 11 -22 11 -56 18 -75 18 -32 -1 -33 0 -28 31 3 17 13 58
22 91 27 98 18 254 -18 311 -7 11 -26 29 -41 40 -35 23 -37 47 -7 68 32 23 40
21 106 -29z m-360 -24 c4 -28 -43 -81 -71 -81 -25 0 -57 18 -57 33 1 20 94 80
115 74 6 -2 12 -14 13 -26z m-1 -98 c-9 -9 -20 -13 -24 -9 -4 4 -1 11 7 16 25
16 35 11 17 -7z m-94 -19 c15 -6 17 -24 17 -193 l0 -186 -32 -11 c-18 -6 -41
-14 -51 -19 -16 -7 -17 0 -11 106 3 63 10 130 14 149 5 19 12 66 16 103 4 45
10 66 18 62 6 -3 19 -8 29 -11z m288 -376 c9 -17 9 -41 -1 -106 -11 -70 -11
-89 0 -116 23 -54 16 -86 -35 -170 -27 -43 -51 -73 -53 -66 -11 31 11 102 44
141 19 23 33 47 31 53 -6 17 -37 19 -55 3 -22 -19 -90 -57 -103 -57 -34 0 -57
242 -26 282 14 19 120 57 159 58 18 0 31 -7 39 -22z m176 -34 c33 -6 92 -48
82 -58 -3 -4 -21 0 -40 8 -19 8 -53 16 -75 18 -40 3 -44 6 -44 28 0 11 33 13
77 4z m-467 -39 c0 -11 -69 -55 -85 -55 -1 0 0 11 2 25 7 34 83 62 83 30z
m509 -50 l54 -25 -7 -253 c-4 -156 -12 -279 -21 -322 -8 -38 -14 -106 -15
-151 0 -44 -3 -83 -6 -87 -4 -3 -23 1 -43 9 -34 15 -145 46 -166 46 -5 1 -27
-3 -47 -7 -33 -6 -38 -5 -39 11 -1 15 -2 15 -6 3 -3 -11 -18 -16 -58 -17 -31
-1 -63 -6 -73 -11 -10 -5 -37 -12 -60 -16 l-42 -6 0 33 c-3 310 -10 405 -35
488 -28 91 -46 208 -38 239 6 25 77 63 111 59 26 -3 27 -5 32 -83 3 -53 11
-90 24 -111 l18 -31 -41 -75 c-22 -41 -41 -80 -41 -87 0 -9 14 -11 53 -6 53 6
62 3 85 -26 10 -14 9 -23 -9 -53 -12 -20 -19 -40 -15 -43 10 -10 38 20 83 90
23 37 47 67 51 67 5 0 24 -5 41 -11 53 -19 55 -9 56 197 1 151 3 187 15 194
26 17 84 10 139 -15z m-351 -339 l20 -68 -28 27 c-23 22 -34 26 -60 20 l-31
-7 22 44 c43 86 47 85 77 -16z m162 44 c0 -28 -4 -40 -14 -40 -25 0 -28 18 -9
50 9 16 19 30 20 30 2 0 3 -18 3 -40z m120 -560 c30 -12 60 -27 67 -33 15 -15
33 -178 33 -294 0 -49 -9 -223 -21 -388 -26 -376 -37 -586 -31 -602 2 -7 35
-22 73 -35 88 -28 79 -50 -11 -25 -33 9 -70 17 -83 17 -21 0 -23 7 -41 117
-49 316 -165 801 -208 871 -28 46 -55 39 -96 -23 -53 -80 -91 -167 -160 -365
-64 -187 -95 -294 -127 -450 -10 -47 -25 -91 -33 -97 -9 -7 -43 -13 -75 -13
-49 0 -57 2 -48 13 6 8 28 19 50 25 59 18 65 42 56 230 -6 145 -5 167 20 292
14 74 41 198 60 275 18 77 42 183 53 235 37 175 54 230 68 230 7 0 35 7 61 16
78 27 132 33 238 29 72 -3 117 -10 155 -25z"></path>
</g>
<g transform="translate(0.000000,300.000000) scale(0.100000,-0.100000)" fill="#FFFFFF" stroke="none">


<path style="position: relative;" class="node" id="node4" d="M722 2954 c-30 -21 -28 -45 7 -68 15 -11 34 -29 41 -40 36 -57 45
-213 18 -311 -9 -33 -19 -74 -22 -91 -5 -31 -4 -32 28 -31 19 0 53 -7 75 -18
23 -10 44 -15 48 -11 7 6 -12 370 -24 453 -5 39 -12 48 -65 88 -66 50 -74 52
-106 29z"></path>
<path style="position: relative;" class="node" id="node5" d="M418 2916 c-44 -23 -77 -50 -78 -63 0 -15 32 -33 57 -33 28 0 75 53
71 81 -4 29 -16 32 -50 15z"></path>
<path style="position: relative;" class="node" id="node6" d="M450 2810 c-8 -5 -11 -12 -7 -16 4 -4 15 0 24 9 18 18 8 23 -17 7z"></path>
<path style="position: relative;" class="node" id="node7" d="M326 2733 c-4 -37 -11 -84 -16 -103 -4 -19 -11 -86 -14 -149 -6 -106
-5 -113 11 -106 10 5 33 13 51 19 l32 11 0 186 c0 169 -2 187 -17 193 -10 3
-23 8 -29 11 -8 4 -14 -17 -18 -62z"></path>
<path style="position: relative;" class="node" id="node8" d="M535 2409 c-33 -11 -66 -28 -72 -37 -31 -40 -8 -282 26 -282 13 0 81
38 103 57 18 16 49 14 55 -3 2 -6 -12 -30 -31 -53 -33 -39 -55 -110 -44 -141
2 -7 26 23 53 66 51 84 58 116 35 170 -11 27 -11 46 0 116 20 132 0 149 -125
107z"></path>
<path style="position: relative;" class="node" id="node9" d="M760 2370 c0 -22 4 -25 44 -28 22 -2 56 -10 75 -18 45 -19 53 -8 17
21 -39 31 -136 49 -136 25z"></path>
<path style="position: relative;" class="node" id="node10" d="M319 2339 c-17 -6 -29 -19 -32 -34 -2 -14 -3 -25 -2 -25 16 0 85 44
85 55 0 17 -13 18 -51 4z"></path>
<path style="position: relative;" class="node" id="node11" d="M740 2300 c-12 -7 -14 -43 -15 -194 -1 -206 -3 -216 -56 -197 -17 6
-36 11 -41 11 -4 0 -28 -30 -51 -67 -45 -70 -73 -100 -83 -90 -4 3 3 23 15 43
18 30 19 39 9 53 -23 29 -32 32 -85 26 -39 -5 -53 -3 -53 6 0 7 19 46 41 87
l41 75 -18 31 c-13 21 -21 58 -24 111 -5 78 -6 80 -32 83 -34 4 -105 -34 -111
-59 -8 -31 10 -148 38 -239 25 -83 32 -178 35 -488 l0 -33 42 6 c23 4 50 11
60 16 10 5 42 10 73 11 40 1 55 6 58 17 4 12 5 12 6 -3 1 -16 6 -17 39 -11 20
4 42 8 47 7 21 0 132 -31 166 -46 20 -8 39 -12 43 -9 3 4 6 43 6 87 1 45 7
113 15 151 9 43 17 166 21 322 l7 253 -54 25 c-55 25 -113 32 -139 15z"></path>
<path style="position: relative;" class="node" id="node12" d="M483 2018 c-6 -7 -20 -33 -32 -56 l-22 -44 31 7 c26 6 37 2 60 -20
l28 -27 -20 68 c-24 79 -31 90 -45 72z"></path>
<path style="position: relative;" class="node" id="node13" d="M667 2000 c-19 -32 -16 -50 9 -50 10 0 14 12 14 40 0 22 -1 40 -3 40
-1 0 -11 -14 -20 -30z"></path>
<path style="position: relative;" class="node" id="node14" d="M510 1451 c-25 -5 -67 -16 -93 -25 -26 -9 -54 -16 -61 -16 -14 0 -31
-55 -68 -230 -11 -52 -35 -158 -53 -235 -19 -77 -46 -201 -60 -275 -25 -125
-26 -147 -20 -292 9 -188 3 -212 -56 -230 -22 -6 -44 -17 -50 -25 -9 -11 -1
-13 48 -13 32 0 66 6 75 13 8 6 23 50 33 97 32 156 63 263 127 450 69 198 107
285 160 365 41 62 68 69 96 23 43 -70 159 -555 208 -871 18 -110 20 -117 41
-117 13 0 50 -8 83 -17 90 -25 99 -3 11 25 -38 13 -71 28 -73 35 -6 16 5 226
31 602 12 165 21 339 21 388 0 116 -18 279 -33 294 -7 6 -37 21 -67 33 -61 24
-222 35 -300 21z"></path>

<path style="position: relative;" class="node" id="node16" d="M1010 15 c-10 -12 -10 -15 4 -15 9 0 16 7 16 15 0 8 -2 15 -4 15 -2
0 -9 -7 -16 -15z"></path>
</g>
</svg>